<svg xmlns="http://www.w3.org/2000/svg" width="16.152" height="16.152" viewBox="0 0 16.152 16.152"><g transform="translate(-3.375 -3.375)"><path d="M18.4,17.518l-2.046-2.046L18.4,13.426a.62.62,0,0,0-.878-.878l-2.046,2.046-2.046-2.046a.62.62,0,0,0-.877.878L14.6,15.472l-2.046,2.046a.6.6,0,0,0,0,.878.616.616,0,0,0,.877,0l2.046-2.046L17.52,18.4a.623.623,0,0,0,.878,0A.616.616,0,0,0,18.4,17.518Z" transform="translate(-4.023 -4.021)" fill="#fff"/><path d="M11.451,4.462A6.986,6.986,0,1,1,6.508,6.508a6.943,6.943,0,0,1,4.943-2.046m0-1.087a8.076,8.076,0,1,0,8.076,8.076,8.075,8.075,0,0,0-8.076-8.076Z" fill="#fff"/></g></svg>