<svg xmlns="http://www.w3.org/2000/svg" viewBox="0 0 27.76 24.68"><defs><style>.cls-1{fill:#fff;}</style></defs><g id="圖層_2" data-name="圖層 2"><g id="圖層_2-2" data-name="圖層 2"><path class="cls-1" d="M27.64,6.94,25,0H18.64l1.22,8.09c.24,1.52,1.91,2.71,3.94,2.71,2.19,0,4-1.38,4-3.09a2.48,2.48,0,0,0-.12-.77Zm-6.05,5.47v6.1H6.17V12.42A6.6,6.6,0,0,1,4,12.8a6.42,6.42,0,0,1-.89-.07v9.79a2.17,2.17,0,0,0,2.16,2.16H22.52a2.16,2.16,0,0,0,2.16-2.16V12.73a6.18,6.18,0,0,1-3.09-.32ZM13.88,10.8c2.19,0,4-1.38,4-3.09,0-.06,0-.12,0-.18L17.05,0H10.71L9.92,7.52v.19c0,1.71,1.77,3.09,4,3.09Zm-6-2.7L9.12,0H2.78L.13,6.94A2.22,2.22,0,0,0,0,7.71C0,9.42,1.77,10.8,4,10.8c2,0,3.69-1.18,3.93-2.7Z"/></g></g></svg>