<svg xmlns="http://www.w3.org/2000/svg" xmlns:xlink="http://www.w3.org/1999/xlink" width="200" height="200" viewBox="0 0 200 200"><defs><style>.a{fill:#fff;}.b{fill:#f0dcc2;}.c{filter:url(#a);}</style><filter id="a" x="0" y="0" width="200" height="200" filterUnits="userSpaceOnUse"><feOffset dx="20" dy="20" input="SourceAlpha"/><feGaussianBlur stdDeviation="25" result="b"/><feFlood flood-color="#c1893f" flood-opacity="0.302"/><feComposite operator="in" in2="b"/><feComposite in="SourceGraphic"/></filter></defs><g transform="translate(-1655 -448)"><circle class="a" cx="21" cy="21" r="21" transform="translate(1714 507)"/><g class="c" transform="matrix(1, 0, 0, 1, 1655, 448)"><path class="b" d="M3.375,28.375a25,25,0,1,0,25-25A25,25,0,0,0,3.375,28.375Zm29.387,0-9.844-9.748A2.32,2.32,0,0,1,26.2,15.346l11.466,11.5a2.317,2.317,0,0,1,.072,3.2L26.44,41.38a2.316,2.316,0,1,1-3.281-3.269Z" transform="translate(51.63 51.63)"/></g></g></svg>